# xmcd
#
# Track frame offsets:
#	150
#	17232
#	31885
#	65072
#	80935
#	97427
#	114900
#	134265
#	147090
#	161882
#	172857
#
# Disc length: 2501 seconds
#
# Revision: 1
# Processed by: cddbd v1.5.1PL0 Copyright (c) Steve Scherf et al.
# Submitted via: CDex 1.50Beta5
#
DISCID=9b09c30b
DTITLE=中丸三千絵 - いのちの音
DYEAR=1900
DGENRE=
TTITLE0=歌に生き、愛に生き
TTITLE1=私のお父さん
TTITLE2=心なごませる西風
TTITLE3=主のみ名により
TTITLE4=歌の翼に
TTITLE5=別れの曲
TTITLE6=子守歌
TTITLE7=アヴェ。マリア
TTITLE8=かわいいほほ
TTITLE9=わたしが町を歩くと
TTITLE10=あの素晴らしい愛をもう一度
EXTD=
EXTT0=
EXTT1=
EXTT2=
EXTT3=
EXTT4=
EXTT5=
EXTT6=
EXTT7=
EXTT8=
EXTT9=
EXTT10=
PLAYORDER=
